<svg width="32" height="32" viewBox="0 0 32 32" fill="none" xmlns="http://www.w3.org/2000/svg">
<g clip-path="url(#clip0_287_2921)">
<path d="M28.6139 21.52C27.7656 23.5259 26.4389 25.2936 24.7497 26.6684C23.0605 28.0431 21.0602 28.9832 18.9238 29.4063C16.7873 29.8295 14.5798 29.7228 12.4941 29.0957C10.4084 28.4686 8.50804 27.3401 6.95923 25.8088C5.41042 24.2776 4.26029 22.3903 3.60938 20.3119C2.95848 18.2335 2.82662 16.0273 3.22533 13.8861C3.62405 11.745 4.5412 9.73413 5.8966 8.02933C7.252 6.32454 9.00438 4.97772 11.0005 4.10663" stroke="#E9EEF2" stroke-width="2.66667" stroke-linecap="round" stroke-linejoin="round"/>
<path d="M29.6672 16.3333C29.6672 14.5824 29.3223 12.8486 28.6523 11.2309C27.9822 9.61321 27.0001 8.14336 25.762 6.90524C24.5238 5.66713 23.054 4.685 21.4363 4.01494C19.8186 3.34488 18.0848 3 16.3339 3V16.3333H29.6672Z" stroke="#E9EEF2" stroke-width="2.66667" stroke-linecap="round" stroke-linejoin="round"/>
</g>
<defs>
<clipPath id="clip0_287_2921">
<rect width="32" height="32" fill="white"/>
</clipPath>
</defs>
</svg>
