<svg width="32" height="33" viewBox="0 0 32 33" fill="none" xmlns="http://www.w3.org/2000/svg">
<g clip-path="url(#clip0_287_2836)">
<path d="M21 5.84369H23.6667C24.3739 5.84369 25.0522 6.13342 25.5523 6.64915C26.0524 7.16487 26.3333 7.86434 26.3333 8.59369V27.8437C26.3333 28.573 26.0524 29.2725 25.5523 29.7882C25.0522 30.304 24.3739 30.5937 23.6667 30.5937H7.66667C6.95942 30.5937 6.28115 30.304 5.78105 29.7882C5.28095 29.2725 5 28.573 5 27.8437V8.59369C5 7.86434 5.28095 7.16487 5.78105 6.64915C6.28115 6.13342 6.95942 5.84369 7.66667 5.84369H10.3333" stroke="#DDDDDD" stroke-width="2.66667" stroke-linecap="round" stroke-linejoin="round"/>
<path d="M19.6667 3.09375H11.6667C10.9303 3.09375 10.3334 3.70936 10.3334 4.46875V7.21875C10.3334 7.97814 10.9303 8.59375 11.6667 8.59375H19.6667C20.4031 8.59375 21 7.97814 21 7.21875V4.46875C21 3.70936 20.4031 3.09375 19.6667 3.09375Z" stroke="#DDDDDD" stroke-width="2.66667" stroke-linecap="round" stroke-linejoin="round"/>
</g>
<defs>
<clipPath id="clip0_287_2836">
<rect width="32" height="33" fill="white"/>
</clipPath>
</defs>
</svg>
